<svg height="100%" stroke-miterlimit="10" style="fill-rule:nonzero;clip-rule:evenodd;stroke-linecap:round;stroke-linejoin:round;" version="1.1" viewBox="0 0 512 512" width="100%" xml:space="preserve" xmlns="http://www.w3.org/2000/svg">
    <clipPath id="ArtboardFrame">
        <rect height="512" width="512" x="0" y="0"/>
    </clipPath>
    <g clip-path="url(#ArtboardFrame)" id="Layer-1">
        <path d="M54.773 510.691L164.311 510.691C194.538 510.691 219.05 486.15 219.05 455.922L219.05 54.3337C219.05 24.0561 194.538-0.435234 164.311-0.435234L54.773-0.435234C24.5254-0.435234 0.00408481 24.0561 0.00408481 54.3337L0.00408481 455.922C0.00408481 486.15 24.5254 510.691 54.773 510.691ZM36.5267 54.3336C36.5267 44.2578 44.717 36.0773 54.773 36.0773L164.311 36.0773C174.342 36.0773 182.552 44.2578 182.552 54.3336L182.552 455.922C182.552 465.948 174.342 474.179 164.311 474.179L54.773 474.179C44.717 474.179 36.5267 465.948 36.5267 455.922L36.5267 54.3336ZM346.834 510.691L456.372 510.691C486.599 510.691 511.135 486.15 511.135 455.922L511.135 54.3337C511.135 24.0561 486.599-0.435234 456.372-0.435234L346.834-0.435234C316.606-0.435234 292.09 24.0561 292.09 54.3337L292.09 455.922C292.09 486.15 316.606 510.691 346.834 510.691ZM328.592 54.3336C328.592 44.2578 336.803 36.0773 346.834 36.0773L456.372 36.0773C466.422 36.0773 474.618 44.2578 474.618 54.3336L474.618 455.922C474.618 465.948 466.422 474.179 456.372 474.179L346.834 474.179C336.803 474.179 328.592 465.948 328.592 455.922L328.592 54.3336" fill="#000000" fill-rule="evenodd" opacity="0" stroke="none"/>
        <path d="M459.579 214.355L108.085 6.30803C79.5107-10.7131 35.8696 5.72109 35.8696 47.6194L35.8696 463.667C35.8696 501.051 76.576 523.761 108.085 504.979L459.579 296.932C490.886 278.331 490.886 232.73 459.579 214.355ZM443.335 269.346L92.0395 477.393C81.4701 483.443 67.7674 476.219 67.7674 463.667L67.7674 47.6193C67.7674 31.1851 84.2107 29.1986 91.8408 33.7135L443.335 241.76C453.701 247.991 453.701 263.251 443.335 269.346" fill="#000000" fill-rule="evenodd" opacity="0" stroke="none"/>
        <path d="M72.1331 511.43L439.309 511.43C479.114 511.43 511.392 486.704 511.392 456.248L511.392 54.6291C511.392 24.1231 479.114-0.553111 439.309-0.553111L72.1331-0.553111C32.3014-0.553111 0.0104504 24.1231 0.0104504 54.6291L0.0104504 456.248C0.0104504 486.704 32.3014 511.43 72.1331 511.43ZM42.0884 54.629C42.0884 44.4771 52.874 36.235 66.1162 36.235L443.172 36.235C456.381 36.235 467.193 44.4771 467.193 54.629L467.193 456.248C467.193 466.35 456.381 474.642 443.172 474.642L66.1162 474.642C52.874 474.642 42.0884 466.35 42.0884 456.248L42.0884 54.629Z" fill="#000000" fill-rule="evenodd" opacity="1" stroke="none"/>
    </g>
</svg>
